<svg id="Group_283" data-name="Group 283" xmlns="http://www.w3.org/2000/svg" xmlns:xlink="http://www.w3.org/1999/xlink" width="15.388" height="15.998" viewBox="0 0 15.388 15.998">
  <defs>
    <clipPath id="clip-path">
      <rect id="Rectangle_1524" data-name="Rectangle 1524" width="15.388" height="15.998" fill="#068abf"/>
    </clipPath>
    <clipPath id="clip-path-2">
      <path id="Path_70" data-name="Path 70" d="M2.57,1.557q-.06.048-.118.1V5.237a2.412,2.412,0,0,0,3.233,0V1.657q-.057-.051-.117-.1Z" transform="translate(-2.452 -1.557)" fill="#068abf"/>
    </clipPath>
    <clipPath id="clip-path-4">
      <path id="Path_74" data-name="Path 74" d="M17.639,22.017c-.034.024-.068.049-.1.075V27.18a3.217,3.217,0,0,0,3.935,0V22.092c-.033-.026-.067-.051-.1-.075Z" transform="translate(-17.538 -22.017)" fill="#068abf"/>
    </clipPath>
    <clipPath id="clip-path-6">
      <path id="Path_78" data-name="Path 78" d="M34.3,8.925c-.039.031-.077.063-.114.1V12.5a2.341,2.341,0,0,0,3.137,0V9.022q-.055-.05-.114-.1Z" transform="translate(-34.187 -8.925)" fill="#068abf"/>
    </clipPath>
    <clipPath id="clip-path-8">
      <path id="Path_82" data-name="Path 82" d="M2.253,36.185c-.035.027-.069.056-.1.085v3.071a2.115,2.115,0,0,0,2.808,0V36.27c-.033-.029-.067-.058-.1-.085Z" transform="translate(-2.151 -36.185)" fill="#068abf"/>
    </clipPath>
    <clipPath id="clip-path-10">
      <path id="Path_86" data-name="Path 86" d="M38.086,33.153c-.019.015-.038.031-.056.048v1.71a1.152,1.152,0,0,0,1.544,0V33.2c-.018-.016-.037-.033-.056-.048Z" transform="translate(-38.03 -33.153)" fill="#068abf"/>
    </clipPath>
    <clipPath id="clip-path-12">
      <path id="Path_90" data-name="Path 90" d="M21.98,11.257l-.024.018v1.26a.8.8,0,0,0,.974,0v-1.26l-.025-.018Z" transform="translate(-21.956 -11.257)" fill="#068abf"/>
    </clipPath>
    <clipPath id="clip-path-14">
      <path id="Path_94" data-name="Path 94" d="M26.1,42.669l-.025.019v1.26a.8.8,0,0,0,.975,0V42.687l-.025-.018Z" transform="translate(-26.075 -42.669)" fill="#068abf"/>
    </clipPath>
    <clipPath id="clip-path-16">
      <path id="Path_98" data-name="Path 98" d="M5.69,23.338l-.02.015v1a.631.631,0,0,0,.772,0v-1l-.02-.015Z" transform="translate(-5.67 -23.338)" fill="#068abf"/>
    </clipPath>
  </defs>
  <path id="Path_103" data-name="Path 103" d="M0,0,1.641.218V.475L0,.256Z" transform="translate(3.762 12.613) rotate(-45)" fill="#068abf"/>
  <path id="Path_102" data-name="Path 102" d="M0,0H.257l.01,1.973H.01Z" transform="matrix(0.366, -0.931, 0.931, 0.366, 2.823, 8.67)" fill="#068abf"/>
  <path id="Path_104" data-name="Path 104" d="M.272,0H.529L.256,1.763H0Z" transform="translate(10.744 11.346) rotate(-73.987)" fill="#068abf"/>
  <path id="Path_101" data-name="Path 101" d="M0,10.093H.256v1.52H0Z" transform="translate(7.721 -4.895)" fill="#068abf"/>
  <path id="Path_105" data-name="Path 105" d="M0,0,1.874.091l.01.244L0,.256Z" transform="translate(9.878 7.455) rotate(-45)" fill="#068abf"/>
  <path id="Path_67" data-name="Path 67" d="M32.742,58.38l-.375-1.091.243-.073.375,1.091Z" transform="translate(-23.845 -44.166)" fill="#068abf"/>
  <path id="Path_100" data-name="Path 100" d="M.042,0H.3L.256,3.675H0Z" transform="translate(3.968 4.226) rotate(-37.196)" fill="#068abf"/>
  <g id="Group_109" data-name="Group 109" transform="translate(0.822 0.522)">
    <g id="Group_108" data-name="Group 108" clip-path="url(#clip-path-2)">
      <path id="Path_69" data-name="Path 69" d="M5.562,5.072a1.136,1.136,0,0,0-.12-.388.693.693,0,0,0-.349-.307c-.13-.056-.263-.107-.4-.15a.4.4,0,0,1-.16-.064,1.153,1.153,0,0,1-.109-.324c-.01-.079.028-.1.066-.166.02-.033.155-.385.154-.385.05,0,.156-.06.2-.488a.064.064,0,0,0-.063-.066.061.061,0,0,0-.025,0,2.78,2.78,0,0,0,.056-.562c0-.019-.109-.6-.408-.4a.359.359,0,0,0-.417-.207s-.644.161-.668.6c0,0,.015.321.049.566a.065.065,0,0,0-.086.063c.048.461.167.492.211.488l.013.038a1.241,1.241,0,0,0,.209.439c.032.038-.076.3-.092.346-.036.1-.167.107-.252.136-.153.053-.3.115-.451.183a.783.783,0,0,0-.35.66C2.561,5.174,2.481,6,2.452,6H5.685c-.054-.308-.078-.622-.124-.931" transform="translate(-2.452 -1.557)" fill="#068abf"/>
    </g>
  </g>
  <g id="Group_111" data-name="Group 111" transform="translate(0)">
    <g id="Group_110" data-name="Group 110" clip-path="url(#clip-path)">
      <path id="Path_71" data-name="Path 71" d="M2.622,5.287a2.369,2.369,0,1,1,2.37-2.369,2.372,2.372,0,0,1-2.37,2.369m0-4.568a2.2,2.2,0,1,0,2.2,2.2,2.2,2.2,0,0,0-2.2-2.2" transform="translate(-0.167 -0.364)" fill="#068abf"/>
    </g>
  </g>
  <g id="Group_113" data-name="Group 113" transform="translate(5.881 7.384)">
    <g id="Group_112" data-name="Group 112" clip-path="url(#clip-path-4)">
      <path id="Path_73" data-name="Path 73" d="M17.747,26.491c.009-.039.018-.075.028-.109a.657.657,0,0,1,.342-.48,3.1,3.1,0,0,1,.347-.148c.12-.046.274-.106.451-.177l.025-.011a.3.3,0,0,0,.172-.217,1.255,1.255,0,0,0,.018-.174l0-.053c0-.034,0-.068,0-.1L19.1,25l-.051-.047-.018,0a.355.355,0,0,1-.225.007.092.092,0,0,1-.129,0,.077.077,0,0,1-.014-.017.094.094,0,0,1-.035-.009.09.09,0,0,1-.04.009.089.089,0,0,1-.09-.088.092.092,0,0,1,0-.017.079.079,0,0,0-.1-.016.089.089,0,0,1-.09-.088.086.086,0,0,1,.021-.057.089.089,0,0,1-.072-.086.093.093,0,0,1,.013-.045.33.33,0,0,0-.052-.175.084.084,0,0,1,.009-.038.089.089,0,0,1-.06-.083.086.086,0,0,0,0-.121.067.067,0,0,1,0-.014.629.629,0,0,0-.041-.178v0a.086.086,0,0,1-.017-.051.088.088,0,0,1,.051-.079.087.087,0,0,1-.034-.069.084.084,0,0,1,.005-.03.262.262,0,0,0,0-.208.087.087,0,0,1,.022-.127.068.068,0,0,1,0-.014.225.225,0,0,0,.015-.154.087.087,0,0,1-.015-.05.088.088,0,0,1,.044-.075.087.087,0,0,1-.01-.04.118.118,0,0,0,.024-.2.087.087,0,0,1,.067-.051.075.075,0,0,1,0-.019.085.085,0,0,1,.019-.053.083.083,0,0,1-.007-.035.088.088,0,0,1,.066-.085.086.086,0,0,1,.027-.042.1.1,0,0,1,0-.022.089.089,0,0,1,.09-.088h.006a.652.652,0,0,0,.147-.164v-.007a.089.089,0,0,1,.09-.088.091.091,0,0,0,.124-.022.09.09,0,0,1,.09-.088.457.457,0,0,0,.176.032.112.112,0,0,1,.076-.03.119.119,0,0,1,.038.006,1.069,1.069,0,0,1,.247-.012.115.115,0,0,1,.134.012h.018a2.522,2.522,0,0,0,.3-.033.108.108,0,0,1,.03.034.195.195,0,0,0,.149-.01.089.089,0,0,1,.09.088.091.091,0,0,0,.124.022.089.089,0,0,1,.09.088v.007a.637.637,0,0,0,.147.164h.006a.089.089,0,0,1,.09.088.1.1,0,0,1,0,.022.085.085,0,0,1,.027.042.089.089,0,0,1,.066.084.085.085,0,0,0,.011.088.1.1,0,0,1,0,.017.087.087,0,0,1,.074.1.079.079,0,0,0,.018.153.087.087,0,0,0,.034.115.087.087,0,0,1-.015.05.086.086,0,0,1,0,.1.084.084,0,0,1,.016.067.088.088,0,0,1,.041.074.087.087,0,0,1-.019.054.107.107,0,0,1,0,.018.086.086,0,0,1-.023.059.088.088,0,0,1,.04.073.086.086,0,0,1-.022.058.084.084,0,0,1,.005.03.087.087,0,0,1-.034.069.089.089,0,0,1,.051.079.086.086,0,0,1-.017.051v0a.086.086,0,0,0,0,.1.088.088,0,0,1-.041.074.068.068,0,0,1,0,.014.086.086,0,0,0,0,.121.086.086,0,0,0-.05.121.087.087,0,0,0-.022.11.087.087,0,0,1-.03.065.086.086,0,0,1,.013.045.089.089,0,0,1-.072.087.088.088,0,0,1,.021.057.09.09,0,0,1-.091.088.079.079,0,0,0-.1.016.069.069,0,0,1,0,.017.089.089,0,0,1-.09.088.088.088,0,0,1-.039-.009.1.1,0,0,1-.035.009.092.092,0,0,1-.126.031.1.1,0,0,1-.017-.014.377.377,0,0,1-.223,0l-.026,0L19.907,25l-.016.013c0,.006,0,.013,0,.02s0,.014,0,.021v.07c0,.019,0,.038,0,.058a1.129,1.129,0,0,0,.023.193.276.276,0,0,0,.151.189l.037.017c.175.07.327.129.446.175a3.166,3.166,0,0,1,.347.148.659.659,0,0,1,.342.48c.009.034.019.07.028.109a13.039,13.039,0,0,1,.209,1.361H17.538a13.109,13.109,0,0,1,.209-1.36" transform="translate(-17.538 -22.017)" fill="#068abf"/>
    </g>
  </g>
  <g id="Group_115" data-name="Group 115" transform="translate(0)">
    <g id="Group_114" data-name="Group 114" clip-path="url(#clip-path)">
      <path id="Path_75" data-name="Path 75" d="M16.824,26.345a3.309,3.309,0,1,1,3.309-3.309,3.312,3.312,0,0,1-3.309,3.309m0-6.447a3.138,3.138,0,1,0,3.138,3.138A3.142,3.142,0,0,0,16.824,19.9" transform="translate(-8.983 -13.111)" fill="#068abf"/>
    </g>
  </g>
  <g id="Group_117" data-name="Group 117" transform="translate(11.465 2.993)">
    <g id="Group_116" data-name="Group 116" clip-path="url(#clip-path-6)">
      <path id="Path_77" data-name="Path 77" d="M37.2,12.336a1.1,1.1,0,0,0-.116-.376.67.67,0,0,0-.339-.3c-.126-.054-.255-.1-.385-.145a.4.4,0,0,1-.156-.062,1.136,1.136,0,0,1-.106-.315c-.009-.076.028-.1.064-.161.02-.032.151-.374.15-.374.048,0,.151-.058.194-.474a.062.062,0,0,0-.061-.064.064.064,0,0,0-.025,0,2.737,2.737,0,0,0,.055-.546c0-.019-.106-.58-.4-.391a.348.348,0,0,0-.4-.2s-.625.157-.648.586c0,0,.015.311.048.549a.063.063,0,0,0-.08.039.06.06,0,0,0,0,.021c.046.447.162.478.2.474l.012.037a1.206,1.206,0,0,0,.2.426c.031.037-.074.292-.089.336-.035.1-.162.1-.245.132-.149.051-.294.112-.438.177a.761.761,0,0,0-.339.641c-.011.08-.09.885-.118.885h3.137c-.052-.3-.075-.6-.121-.9" transform="translate(-34.187 -8.925)" fill="#068abf"/>
    </g>
  </g>
  <g id="Group_118" data-name="Group 118" transform="translate(0)" clip-path="url(#clip-path)">
    <path id="Path_79" data-name="Path 79" d="M34.248,12.113A2.356,2.356,0,1,1,36.6,9.746a2.363,2.363,0,0,1-2.348,2.367m0-4.54a2.185,2.185,0,0,0,0,4.369,2.2,2.2,0,0,0,2.177-2.2,2.175,2.175,0,0,0-2.173-2.173" transform="translate(-21.208 -4.92)" fill="#068abf"/>
  </g>
  <g id="Group_121" data-name="Group 121" transform="translate(0.721 12.135)">
    <g id="Group_120" data-name="Group 120" clip-path="url(#clip-path-8)">
      <path id="Path_81" data-name="Path 81" d="M4.852,39.2a.963.963,0,0,0-.1-.333.6.6,0,0,0-.3-.263c-.113-.048-.228-.091-.344-.128a.357.357,0,0,1-.139-.055.988.988,0,0,1-.095-.278c-.008-.067.024-.089.058-.142.018-.028.134-.33.134-.33.043,0,.135-.051.174-.418a.056.056,0,0,0-.054-.057.053.053,0,0,0-.022,0,2.356,2.356,0,0,0,.049-.482c0-.017-.095-.513-.355-.346a.313.313,0,0,0-.363-.177s-.56.138-.58.518c0,0,.013.275.043.486a.056.056,0,0,0-.071.034.062.062,0,0,0,0,.019c.041.4.145.422.183.418l.011.033a1.059,1.059,0,0,0,.182.376c.027.033-.066.258-.079.3-.032.09-.145.092-.219.117-.133.045-.264.1-.392.157a.669.669,0,0,0-.3.566c-.01.071-.08.782-.105.782H4.96c-.047-.264-.068-.533-.108-.8" transform="translate(-2.151 -36.185)" fill="#068abf"/>
    </g>
  </g>
  <g id="Group_123" data-name="Group 123" transform="translate(0)">
    <g id="Group_122" data-name="Group 122" clip-path="url(#clip-path)">
      <path id="Path_83" data-name="Path 83" d="M2.121,38.82A2.121,2.121,0,1,1,4.243,36.7,2.124,2.124,0,0,1,2.121,38.82m0-4.072a1.95,1.95,0,1,0,1.95,1.95,1.953,1.953,0,0,0-1.95-1.95" transform="translate(0 -22.981)" fill="#068abf"/>
    </g>
  </g>
  <g id="Group_125" data-name="Group 125" transform="translate(12.753 11.118)">
    <g id="Group_124" data-name="Group 124" clip-path="url(#clip-path-10)">
      <path id="Path_85" data-name="Path 85" d="M39.516,34.831a.543.543,0,0,0-.057-.185.331.331,0,0,0-.167-.147c-.062-.026-.125-.051-.189-.071a.19.19,0,0,1-.076-.03.552.552,0,0,1-.052-.155c0-.038.013-.05.032-.079s.074-.184.073-.184c.024,0,.075-.028.1-.233a.031.031,0,0,0-.03-.032l-.012,0a1.339,1.339,0,0,0,.026-.269c0-.009-.052-.285-.195-.192a.171.171,0,0,0-.2-.1s-.308.077-.319.288c0,0,.007.153.023.27a.031.031,0,0,0-.039.019.023.023,0,0,0,0,.011c.022.22.079.235.1.233l.006.018a.586.586,0,0,0,.1.209c.015.018-.037.144-.044.166-.017.05-.08.051-.12.065-.073.025-.145.055-.216.087a.375.375,0,0,0-.167.315c-.006.04-.044.436-.058.436h1.544c-.026-.147-.037-.3-.059-.445" transform="translate(-38.031 -33.153)" fill="#068abf"/>
    </g>
  </g>
  <g id="Group_127" data-name="Group 127" transform="translate(0)">
    <g id="Group_126" data-name="Group 126" clip-path="url(#clip-path)">
      <path id="Path_87" data-name="Path 87" d="M38.079,34.743a1.171,1.171,0,1,1,1.171-1.171,1.172,1.172,0,0,1-1.171,1.171m0-2.257a1.086,1.086,0,1,0,1.086,1.086,1.087,1.087,0,0,0-1.086-1.086" transform="translate(-24.531 -21.535)" fill="#068abf"/>
    </g>
  </g>
  <g id="Group_129" data-name="Group 129" transform="translate(7.363 3.775)">
    <g id="Group_128" data-name="Group 128" clip-path="url(#clip-path-12)">
      <path id="Path_89" data-name="Path 89" d="M22.008,12.365c0-.01,0-.018.007-.027a.163.163,0,0,1,.085-.119.807.807,0,0,1,.086-.037l.112-.044.006,0a.074.074,0,0,0,.043-.054.306.306,0,0,0,0-.043v-.013c0-.008,0-.017,0-.025L22.343,12l-.013-.012h0a.089.089,0,0,1-.056,0,.023.023,0,0,1-.032,0l0,0-.008,0-.01,0a.022.022,0,0,1-.022-.022v0a.023.023,0,0,1-.014-.007.022.022,0,0,1-.011,0,.022.022,0,0,1-.022-.022.021.021,0,0,1,.005-.014.022.022,0,0,1-.018-.021.019.019,0,0,1,0-.011.021.021,0,0,1-.007-.016.019.019,0,0,1,0-.01.021.021,0,0,1-.008-.017.02.02,0,0,1,0-.01.022.022,0,0,1-.015-.02.021.021,0,0,1,.006-.015.02.02,0,0,1-.006-.015v0a.021.021,0,0,1-.01-.018.022.022,0,0,0,0-.026h0a.02.02,0,0,1,0-.013.022.022,0,0,1,.013-.02.023.023,0,0,1-.009-.017.027.027,0,0,1,0-.007.021.021,0,0,1,0-.033.239.239,0,0,0-.01-.032.022.022,0,0,1,.01-.018v0a.023.023,0,0,1,0-.013.064.064,0,0,0,0-.038.022.022,0,0,1,.011-.018.025.025,0,0,1,0-.01.029.029,0,0,0,.006-.05.021.021,0,0,1,.017-.013v0a.021.021,0,0,1,0-.013.025.025,0,0,1,0-.008.022.022,0,0,1,.016-.021.022.022,0,0,1,.007-.01v-.005a.023.023,0,0,1,.022-.022h0a.148.148,0,0,0,.036-.041v0a.023.023,0,0,1,.022-.022.025.025,0,0,1,.013,0,.022.022,0,0,1,.018-.009.022.022,0,0,1,.036-.017.022.022,0,0,1,.03,0,.029.029,0,0,1,.019-.007l.009,0a.267.267,0,0,1,.061,0,.029.029,0,0,1,.034,0h0a.663.663,0,0,0,.073-.008.03.03,0,0,1,.007.008.023.023,0,0,1,.023,0,.022.022,0,0,1,.013,0,.022.022,0,0,1,.022.022.022.022,0,0,1,.018.009.021.021,0,0,1,.012,0,.023.023,0,0,1,.022.022v0a.022.022,0,0,1,.014.019.022.022,0,0,1,.022.022h0a.022.022,0,0,1,.022.022v.005a.024.024,0,0,1,.007.01.022.022,0,0,1,.016.021.02.02,0,0,1,0,.009.021.021,0,0,1,0,.013v0a.022.022,0,0,1,.018.024.02.02,0,0,0,0,.038.02.02,0,0,1,0,.01.021.021,0,0,1,.007.031.022.022,0,0,1,0,.025.022.022,0,0,1,0,.016.023.023,0,0,1,.01.018.021.021,0,0,1,0,.013v0a.021.021,0,0,0,0,.033.021.021,0,0,1-.006.014.019.019,0,0,1,0,.007.021.021,0,0,1-.008.017.022.022,0,0,1,.013.02.022.022,0,0,1,0,.013h0a.02.02,0,0,1,0,.013.021.021,0,0,1,0,.013.021.021,0,0,1-.01.018v0a.021.021,0,0,1-.006.015.023.023,0,0,1,.006.015.022.022,0,0,1-.015.02.024.024,0,0,1,0,.01.021.021,0,0,1-.008.017.023.023,0,0,1,0,.01.021.021,0,0,1-.007.016.021.021,0,0,1-.014.033.021.021,0,0,1,.005.014.022.022,0,0,1-.022.022.022.022,0,0,1-.011,0,.023.023,0,0,1-.014.007v0a.022.022,0,0,1-.022.022l-.01,0-.009,0a.022.022,0,0,1-.031.008l0,0a.094.094,0,0,1-.055,0h-.007l-.012.011,0,0v.01h0v.005h0v.026a.323.323,0,0,0,.006.048.069.069,0,0,0,.038.047l.009,0,.11.043a.782.782,0,0,1,.086.037.164.164,0,0,1,.085.119l.007.027a3.175,3.175,0,0,1,.052.337h-.975a3.169,3.169,0,0,1,.052-.337" transform="translate(-21.956 -11.257)" fill="#068abf"/>
    </g>
  </g>
  <g id="Group_130" data-name="Group 130" transform="translate(0)" clip-path="url(#clip-path)">
    <path id="Path_91" data-name="Path 91" d="M21.751,12.322a.852.852,0,1,1,.852-.852.853.853,0,0,1-.852.852m0-1.617a.765.765,0,1,0,.765.765.766.766,0,0,0-.765-.765" transform="translate(-13.891 -7.057)" fill="#068abf"/>
  </g>
  <g id="Group_133" data-name="Group 133" transform="translate(8.744 14.309)">
    <g id="Group_132" data-name="Group 132" clip-path="url(#clip-path-14)">
      <path id="Path_93" data-name="Path 93" d="M26.127,43.777l.007-.027c.029-.1.071-.109.085-.119a.8.8,0,0,1,.086-.037l.112-.044.006,0a.073.073,0,0,0,.042-.054.231.231,0,0,0,0-.043v-.013c0-.008,0-.017,0-.025l-.007-.006L26.45,43.4h0a.023.023,0,0,1-.029.005.023.023,0,0,1-.027,0,.023.023,0,0,1-.032,0l0,0-.008,0-.01,0a.022.022,0,0,1-.022-.022v0a.025.025,0,0,1-.014-.007.022.022,0,0,1-.033-.019.02.02,0,0,1,.005-.014.022.022,0,0,1-.018-.021.019.019,0,0,1,0-.011.021.021,0,0,1-.007-.016.023.023,0,0,1,0-.01.022.022,0,0,1-.008-.017.024.024,0,0,1,0-.01.022.022,0,0,1-.014-.02.02.02,0,0,1,.006-.015.019.019,0,0,1-.006-.015v0a.021.021,0,0,1-.01-.018.022.022,0,0,0,0-.026h0a.022.022,0,0,1,0-.013.023.023,0,0,1,.013-.02.024.024,0,0,1-.009-.017.047.047,0,0,1,0-.007.021.021,0,0,1-.006-.014.022.022,0,0,1,.01-.018.021.021,0,0,1-.005-.019.019.019,0,0,1-.005-.013.023.023,0,0,1,.01-.018v0a.021.021,0,0,1,0-.013.022.022,0,0,1,0-.025.021.021,0,0,1,0-.012.022.022,0,0,1,.01-.018.034.034,0,0,1,0-.01.028.028,0,0,0,.006-.05.022.022,0,0,1,.017-.013v0a.021.021,0,0,1,0-.013.024.024,0,0,1,0-.008.022.022,0,0,1,.016-.021.029.029,0,0,1,.007-.01v-.005a.022.022,0,0,1,.022-.022h0a.022.022,0,0,1,.022-.021.023.023,0,0,1,.014-.019v0a.022.022,0,0,1,.022-.022.025.025,0,0,1,.013,0A.023.023,0,0,1,26.4,42.7a.022.022,0,0,1,.022-.021.024.024,0,0,1,.014,0,.022.022,0,0,1,.03,0,.03.03,0,0,1,.019-.007l.009,0a.028.028,0,0,1,.033,0,.027.027,0,0,1,.028,0,.029.029,0,0,1,.034,0h0a.028.028,0,0,1,.034,0,.028.028,0,0,1,.04-.005.025.025,0,0,1,.007.008.023.023,0,0,1,.023,0,.023.023,0,0,1,.013,0,.022.022,0,0,1,.022.022.024.024,0,0,1,.019.009.02.02,0,0,1,.012,0,.023.023,0,0,1,.023.022v0a.163.163,0,0,0,.036.041h0a.022.022,0,0,1,.022.022V42.8a.033.033,0,0,1,.007.01.023.023,0,0,1,.016.021.025.025,0,0,1,0,.009.023.023,0,0,1,0,.013v0a.022.022,0,0,1,.018.024.024.024,0,0,1-.013.017.022.022,0,0,1,.017.021.025.025,0,0,1,0,.01.021.021,0,0,1,.007.031.022.022,0,0,1,0,.025.022.022,0,0,1,0,.016.021.021,0,0,1,.006.032v0a.021.021,0,0,1-.006.014.021.021,0,0,1,.01.018.023.023,0,0,1-.006.014.019.019,0,0,1,0,.007.022.022,0,0,1-.008.017.023.023,0,0,1,.013.02.022.022,0,0,1,0,.013h0a.018.018,0,0,1,0,.013.019.019,0,0,1,0,.013.02.02,0,0,1-.01.018v0a.021.021,0,0,1-.006.015.023.023,0,0,1,.006.015.022.022,0,0,1-.015.02.024.024,0,0,1,0,.01.022.022,0,0,1-.008.017.028.028,0,0,1,0,.01.021.021,0,0,1-.007.016.027.027,0,0,1,0,.011.023.023,0,0,1-.018.021.022.022,0,0,1,.005.014.022.022,0,0,1-.022.022.021.021,0,0,1-.011,0,.024.024,0,0,1-.014.007v0a.022.022,0,0,1-.022.022l-.01,0-.009,0a.022.022,0,0,1-.031.008l0,0a.023.023,0,0,1-.027,0,.023.023,0,0,1-.028,0h-.007l-.012.011,0,0v.01h0v.005h0v.026a.253.253,0,0,0,.006.048.069.069,0,0,0,.037.047l.009,0,.11.043a.81.81,0,0,1,.086.037.164.164,0,0,1,.084.119l.007.027a3.264,3.264,0,0,1,.052.337h-.975a3.085,3.085,0,0,1,.051-.337" transform="translate(-26.076 -42.669)" fill="#068abf"/>
    </g>
  </g>
  <g id="Group_135" data-name="Group 135" transform="translate(0)">
    <g id="Group_134" data-name="Group 134" clip-path="url(#clip-path)">
      <path id="Path_95" data-name="Path 95" d="M25.87,43.734a.852.852,0,1,1,.852-.852.853.853,0,0,1-.852.852m0-1.617a.765.765,0,1,0,.765.765.766.766,0,0,0-.765-.765" transform="translate(-16.628 -27.935)" fill="#068abf"/>
    </g>
  </g>
  <g id="Group_137" data-name="Group 137" transform="translate(1.901 7.827)">
    <g id="Group_136" data-name="Group 136" clip-path="url(#clip-path-16)">
      <path id="Path_97" data-name="Path 97" d="M5.711,24.215c0-.008,0-.015.005-.021a.131.131,0,0,1,.067-.094.575.575,0,0,1,.068-.029l.089-.035.005,0a.059.059,0,0,0,.034-.043.236.236,0,0,0,0-.034s0-.007,0-.01,0-.013,0-.02l-.006,0-.01-.009h0a.018.018,0,0,1-.022,0,.018.018,0,0,1-.022,0,.018.018,0,0,1-.025,0l0,0-.007,0-.008,0a.018.018,0,0,1-.018-.017v0a.018.018,0,0,1-.011-.005l-.009,0a.018.018,0,0,1-.018-.017.017.017,0,0,1,0-.011.017.017,0,0,1-.014-.017.017.017,0,0,1,0-.009.016.016,0,0,1-.006-.013.017.017,0,0,1,0-.008A.018.018,0,0,1,5.8,23.8a.017.017,0,0,1,0-.007.018.018,0,0,1-.012-.016.016.016,0,0,1,.005-.012.017.017,0,0,1-.005-.012v0a.017.017,0,0,1-.008-.014.019.019,0,0,1,0-.01.018.018,0,0,1,0-.01h0a.017.017,0,0,1,0-.01.017.017,0,0,1,.01-.015.017.017,0,0,1-.007-.014v-.006a.019.019,0,0,1,0-.011.017.017,0,0,1,.008-.014.017.017,0,0,1,0-.015.017.017,0,0,1,0-.01A.017.017,0,0,1,5.79,23.6v0a.015.015,0,0,1,0-.01.017.017,0,0,1,0-.02.017.017,0,0,1,0-.01.017.017,0,0,1,.009-.015.016.016,0,0,1,0-.008.017.017,0,0,1,.013-.017A.017.017,0,0,1,5.8,23.5a.018.018,0,0,1,.013-.01v0a.017.017,0,0,1,0-.01.017.017,0,0,1,0-.007.017.017,0,0,1,.013-.016.018.018,0,0,1,.006-.008v0a.018.018,0,0,1,.018-.017h0a.018.018,0,0,1,.018-.017.017.017,0,0,1,.011-.015h0a.017.017,0,0,1,.018-.017l.01,0a.019.019,0,0,1,.014-.007.018.018,0,0,1,.018-.017.019.019,0,0,1,.01,0,.018.018,0,0,1,.024,0,.022.022,0,0,1,.015-.006H6a.022.022,0,0,1,.025,0,.023.023,0,0,1,.023,0,.023.023,0,0,1,.026,0h0a.468.468,0,0,0,.058-.006l.006.007a.018.018,0,0,1,.018,0,.019.019,0,0,1,.01,0,.068.068,0,0,0,.032.025.018.018,0,0,1,.028.014h0a.018.018,0,0,1,.011.015.017.017,0,0,1,.017.017h0a.018.018,0,0,1,.017.017v0a.019.019,0,0,1,.005.008.017.017,0,0,1,.013.017.015.015,0,0,1,0,.007.017.017,0,0,1,0,.01v0a.017.017,0,0,1,.014.019.016.016,0,0,1-.01.013.017.017,0,0,1,.013.017.016.016,0,0,1,0,.008.018.018,0,0,1,.009.015.019.019,0,0,1,0,.01.017.017,0,0,1,0,.02.058.058,0,0,0,.011.027.017.017,0,0,1,0,.01v0a.016.016,0,0,1,0,.011.017.017,0,0,1,.008.014.017.017,0,0,1,0,.011v.006a.018.018,0,0,1-.007.013.017.017,0,0,1,.01.016.019.019,0,0,1,0,.01h0a.015.015,0,0,1,0,.01.017.017,0,0,1,0,.025v0a.018.018,0,0,1-.005.012.017.017,0,0,1,.005.012.017.017,0,0,0-.01.024.017.017,0,0,1-.006.013.018.018,0,0,1,0,.008.018.018,0,0,1-.006.013.02.02,0,0,1,0,.009.017.017,0,0,1-.014.017.017.017,0,0,1-.013.029l-.009,0a.018.018,0,0,1-.011.005v0a.018.018,0,0,1-.018.017l-.008,0-.007,0a.018.018,0,0,1-.024.006l0,0a.018.018,0,0,1-.022,0,.017.017,0,0,1-.022,0H6.144l-.009.009,0,0v.008h0v0h0v.02a.239.239,0,0,0,0,.038.054.054,0,0,0,.03.037l.007,0,.088.034a.586.586,0,0,1,.068.029c.011.008.045.016.067.094,0,.006,0,.014.006.021a2.571,2.571,0,0,1,.041.267H5.67a2.478,2.478,0,0,1,.041-.267" transform="translate(-5.67 -23.338)" fill="#068abf"/>
    </g>
  </g>
  <g id="Group_139" data-name="Group 139" transform="translate(0)">
    <g id="Group_138" data-name="Group 138" clip-path="url(#clip-path)">
      <path id="Path_99" data-name="Path 99" d="M5.508,24.182a.675.675,0,1,1,.675-.675.676.676,0,0,1-.675.675m0-1.281a.606.606,0,1,0,.606.606.607.607,0,0,0-.606-.606" transform="translate(-3.212 -15.175)" fill="#068abf"/>
    </g>
  </g>
</svg>
