<svg xmlns="http://www.w3.org/2000/svg" xmlns:xlink="http://www.w3.org/1999/xlink" width="213" height="87" viewBox="0 0 213 87">
  <defs>
    <clipPath id="clip-path">
      <path id="Path_186" data-name="Path 186" d="M58.087,22.981q-.257.183-.5.374v25.37a16.04,16.04,0,0,0,19.62,0V23.355c-.167-.127-.333-.251-.5-.374Z" fill="#fafafa"/>
    </clipPath>
    <clipPath id="clip-path-2">
      <rect id="Rectangle_1582" data-name="Rectangle 1582" width="142.739" height="64.911" transform="translate(0 0)" fill="#fafafa"/>
    </clipPath>
    <clipPath id="clip-path-3">
      <path id="Path_189" data-name="Path 189" d="M75.229,1.7c-.131.1-.257.211-.379.322V13.58a7.784,7.784,0,0,0,10.436,0V2.021c-.123-.111-.249-.219-.379-.322Z" fill="#fafafa"/>
    </clipPath>
    <clipPath id="clip-path-5">
      <path id="Path_192" data-name="Path 192" d="M55.133,56.15c-.08.064-.158.129-.237.2V63.4a4.859,4.859,0,0,0,6.452,0V56.347c-.075-.068-.153-.134-.237-.2Z" fill="#fafafa"/>
    </clipPath>
    <clipPath id="clip-path-7">
      <path id="Path_195" data-name="Path 195" d="M59.891,8.989c-.043.029-.083.06-.123.091v6.284a3.97,3.97,0,0,0,4.857,0V9.08L64.5,8.989Z" fill="#fafafa"/>
    </clipPath>
    <clipPath id="clip-path-9">
      <path id="Path_198" data-name="Path 198" d="M75.191,54.443c-.042.031-.084.062-.125.095V60.82a3.97,3.97,0,0,0,4.859,0V54.536c-.042-.033-.084-.062-.125-.093Z" fill="#fafafa"/>
    </clipPath>
  </defs>
  <g id="Group_333" data-name="Group 333" transform="translate(-255 -106)">
    <rect id="Rectangle_1587" data-name="Rectangle 1587" width="213" height="87" transform="translate(255 106)" fill="#212121"/>
    <g id="Group_331" data-name="Group 331" transform="translate(287.261 116.634)">
      <path id="Path_182" data-name="Path 182" d="M58.165,55.083l2.386-4.376,1.229.353-2.386,4.376Z" fill="#fafafa"/>
      <rect id="Rectangle_1581" data-name="Rectangle 1581" width="1.277" height="4.339" transform="translate(62.307 15.733) rotate(-12.991)" fill="#fafafa"/>
      <path id="Path_183" data-name="Path 183" d="M76.2,22.146,79.75,11.118l-1.064-.456L75.052,21.73Z" fill="#fafafa"/>
      <path id="Path_184" data-name="Path 184" d="M74.519,54.835l-3.166-5.4,1.09-.662,3.165,5.4Z" fill="#fafafa"/>
      <g id="Group_310" data-name="Group 310">
        <g id="Group_309" data-name="Group 309" clip-path="url(#clip-path)">
          <path id="Path_185" data-name="Path 185" d="M58.627,45.289q.064-.291.14-.543a3.28,3.28,0,0,1,1.7-2.394,15.519,15.519,0,0,1,1.731-.739c.6-.231,1.364-.528,2.249-.881l.125-.055A1.481,1.481,0,0,0,65.43,39.6a6.292,6.292,0,0,0,.09-.866l.01-.266c.005-.171,0-.339-.007-.507-.05-.037-.1-.075-.145-.114-.085-.075-.172-.154-.256-.234l-.089-.01a1.772,1.772,0,0,1-1.124.034.456.456,0,0,1-.645,0,.389.389,0,0,1-.069-.087.464.464,0,0,1-.172-.043.45.45,0,0,1-.65-.393.478.478,0,0,1,.008-.084.392.392,0,0,0-.513-.078.445.445,0,0,1-.45-.44.43.43,0,0,1,.1-.284.445.445,0,0,1-.359-.43.465.465,0,0,1,.064-.224.434.434,0,0,1-.094-.533.436.436,0,0,1-.166-.339.409.409,0,0,1,.047-.191.441.441,0,0,1-.3-.415.428.428,0,0,1,.124-.3.428.428,0,0,1-.124-.3.326.326,0,0,1,.007-.07.431.431,0,0,1-.138-.6.4.4,0,0,1,.023-.034.44.44,0,0,1-.089-.261v-.018a.43.43,0,0,1-.085-.256.44.44,0,0,1,.256-.4.434.434,0,0,1-.171-.344.428.428,0,0,1,.027-.15.431.431,0,0,1,.03-.609.368.368,0,0,1,.059-.045.431.431,0,0,1-.107-.383.432.432,0,0,1,.07-.607l.04-.028a.351.351,0,0,1-.007-.072.427.427,0,0,1,.089-.261.426.426,0,0,1-.012-.507.433.433,0,0,1,.14-.622.434.434,0,0,1-.048-.2.439.439,0,0,1,.341-.426.437.437,0,0,1,.117-.831.375.375,0,0,1-.012-.1.421.421,0,0,1,.094-.266.425.425,0,0,1-.037-.172.438.438,0,0,1,.328-.421.428.428,0,0,1,.135-.211.441.441,0,0,1,.435-.547h.03a.444.444,0,0,1,.45-.435.444.444,0,0,1,.281-.383V24.2a.445.445,0,0,1,.45-.44.455.455,0,0,0,.618-.112.447.447,0,0,1,.448-.436,2.287,2.287,0,0,0,.88.159.555.555,0,0,1,.381-.147.591.591,0,0,1,.187.03,5.348,5.348,0,0,1,1.234-.059.571.571,0,0,1,.671.06h.089A.572.572,0,0,1,68.6,23.2a.569.569,0,0,1,.8-.112l0,0a.544.544,0,0,1,.149.171.972.972,0,0,0,.741-.05.445.445,0,0,1,.45.44.455.455,0,0,0,.618.112.445.445,0,0,1,.45.44v.033a.443.443,0,0,1,.281.385.441.441,0,0,1,.45.432h.028a.443.443,0,0,1,.45.436v0a.445.445,0,0,1-.013.109.421.421,0,0,1,.137.211.441.441,0,0,1,.328.42.425.425,0,0,1-.037.172.429.429,0,0,1,.094.268.511.511,0,0,1-.008.087.436.436,0,0,1,.37.493v0a.442.442,0,0,1-.252.336.437.437,0,0,1,.33.524.423.423,0,0,1-.037.1.431.431,0,0,1,.16.588.343.343,0,0,1-.02.032.429.429,0,0,1-.012.507.418.418,0,0,1,.082.333.438.438,0,0,1,.2.368.429.429,0,0,1-.094.268.526.526,0,0,1,.008.089.433.433,0,0,1-.115.294.442.442,0,0,1,.2.365.429.429,0,0,1-.112.289.428.428,0,0,1,.027.15.434.434,0,0,1-.171.344.442.442,0,0,1,.256.4.43.43,0,0,1-.085.256v.018a.433.433,0,0,1-.089.261.434.434,0,0,1-.111.629.352.352,0,0,1,.007.072.432.432,0,0,1-.124.3.432.432,0,0,1,.124.3.441.441,0,0,1-.3.413.423.423,0,0,1-.119.53.43.43,0,0,1-.1.533.422.422,0,0,1,.064.224.445.445,0,0,1-.358.431.438.438,0,0,1,.1.283.447.447,0,0,1-.451.44.463.463,0,0,1-.229-.062.456.456,0,0,1-.284.14.342.342,0,0,1,.008.084.444.444,0,0,1-.448.44h0a.449.449,0,0,1-.2-.047.489.489,0,0,1-.172.043.457.457,0,0,1-.627.156.489.489,0,0,1-.087-.069,1.882,1.882,0,0,1-1.114-.019l-.132.012c-.079.077-.159.149-.239.219L69.3,37.9a.691.691,0,0,1,0,.1.765.765,0,0,0,0,.107v.349c0,.094,0,.191.01.289a5.541,5.541,0,0,0,.114.961,1.379,1.379,0,0,0,.752.941l.182.087c.875.348,1.63.642,2.226.871a15.79,15.79,0,0,1,1.731.739,3.287,3.287,0,0,1,1.7,2.394c.047.169.094.349.14.543a65.035,65.035,0,0,1,1.043,6.787H57.584a65.516,65.516,0,0,1,1.043-6.782" fill="#fafafa"/>
        </g>
      </g>
      <g id="Group_312" data-name="Group 312">
        <g id="Group_311" data-name="Group 311" clip-path="url(#clip-path-2)">
          <path id="Path_187" data-name="Path 187" d="M67.356,52.15a16.5,16.5,0,1,1,16.5-16.5,16.5,16.5,0,0,1-16.5,16.5m0-32.146A15.647,15.647,0,1,0,83,35.651,15.646,15.646,0,0,0,67.356,20" fill="#fafafa"/>
        </g>
      </g>
      <g id="Group_314" data-name="Group 314">
        <g id="Group_313" data-name="Group 313" clip-path="url(#clip-path-3)">
          <path id="Path_188" data-name="Path 188" d="M84.888,13.048A3.654,3.654,0,0,0,84.5,11.8a2.225,2.225,0,0,0-1.128-.993c-.421-.18-.847-.344-1.28-.482a1.332,1.332,0,0,1-.518-.2,3.8,3.8,0,0,1-.353-1.048c-.03-.254.091-.337.214-.534.067-.107.5-1.243.5-1.243.16-.008.5-.194.645-1.575a.207.207,0,0,0-.2-.213.213.213,0,0,0-.083.014A9.137,9.137,0,0,0,82.481,3.7c0-.062-.351-1.931-1.319-1.3a1.157,1.157,0,0,0-1.347-.666s-2.08.52-2.152,1.949c0,0,.049,1.034.158,1.827a.21.21,0,0,0-.266.131.191.191,0,0,0-.01.071c.153,1.488.539,1.59.679,1.575.013.041.027.083.041.124A4.021,4.021,0,0,0,78.94,8.83c.1.124-.245.972-.3,1.118-.116.338-.539.346-.814.441-.494.171-.978.371-1.458.589A2.532,2.532,0,0,0,75.24,13.11c-.038.267-.3,2.945-.392,2.945H85.286c-.174-1-.251-2.008-.4-3.007" fill="#fafafa"/>
        </g>
      </g>
      <g id="Group_316" data-name="Group 316">
        <g id="Group_315" data-name="Group 315" clip-path="url(#clip-path-2)">
          <path id="Path_190" data-name="Path 190" d="M80.091,15.672A7.836,7.836,0,1,1,87.9,7.8a7.837,7.837,0,0,1-7.809,7.874M79.975.444A7.391,7.391,0,1,0,87.333,7.8,7.395,7.395,0,0,0,79.975.444" fill="#fafafa"/>
        </g>
      </g>
      <g id="Group_318" data-name="Group 318">
        <g id="Group_317" data-name="Group 317" clip-path="url(#clip-path-5)">
          <path id="Path_191" data-name="Path 191" d="M61.1,63.077a2.208,2.208,0,0,0-.237-.764,1.381,1.381,0,0,0-.7-.606c-.26-.109-.524-.209-.792-.3a.816.816,0,0,1-.319-.125,2.244,2.244,0,0,1-.218-.64c-.02-.155.056-.206.132-.326.041-.065.309-.759.308-.759.1,0,.311-.118.4-.961a.127.127,0,0,0-.125-.13.129.129,0,0,0-.052.008,5.425,5.425,0,0,0,.113-1.108c0-.038-.218-1.178-.816-.794a.719.719,0,0,0-.832-.407s-1.286.319-1.333,1.19c0,0,.031.632.1,1.116a.129.129,0,0,0-.164.079.131.131,0,0,0-.007.044c.1.908.333.97.421.962.007.025.016.05.025.075a2.414,2.414,0,0,0,.415.865c.063.075-.152.592-.183.682-.072.206-.333.211-.5.269-.306.1-.6.226-.9.36a1.543,1.543,0,0,0-.7,1.3c-.023.163-.185,1.8-.241,1.8h6.454c-.108-.608-.156-1.225-.248-1.837" fill="#fafafa"/>
        </g>
      </g>
      <g id="Group_320" data-name="Group 320">
        <g id="Group_319" data-name="Group 319" clip-path="url(#clip-path-2)">
          <path id="Path_193" data-name="Path 193" d="M58.115,64.661a4.874,4.874,0,1,1,4.874-4.874,4.874,4.874,0,0,1-4.874,4.874m0-9.355A4.481,4.481,0,1,0,62.6,59.787a4.481,4.481,0,0,0-4.481-4.481" fill="#fafafa"/>
        </g>
      </g>
      <g id="Group_322" data-name="Group 322">
        <g id="Group_321" data-name="Group 321" clip-path="url(#clip-path-7)">
          <path id="Path_194" data-name="Path 194" d="M60.026,14.514c.012-.048.022-.092.035-.134a.813.813,0,0,1,.421-.594,3.939,3.939,0,0,1,.428-.184c.149-.057.339-.13.558-.217l.03-.013a.373.373,0,0,0,.212-.269,1.539,1.539,0,0,0,.023-.214V12.7c-.012-.01-.025-.018-.035-.028s-.043-.038-.064-.059h-.022a.444.444,0,0,1-.279.008.112.112,0,0,1-.159,0l-.018-.022a.146.146,0,0,1-.042-.012.1.1,0,0,1-.048.012.109.109,0,0,1-.112-.106v-.023a.11.11,0,0,1-.07-.035.113.113,0,0,1-.057.015.111.111,0,0,1-.11-.109.106.106,0,0,1,.025-.07.111.111,0,0,1-.089-.107.1.1,0,0,1,.017-.055.107.107,0,0,1-.024-.132.107.107,0,0,1-.042-.084.1.1,0,0,1,.012-.048.108.108,0,0,1-.074-.1.1.1,0,0,1,.03-.075.1.1,0,0,1-.03-.074v-.018a.105.105,0,0,1-.05-.09.108.108,0,0,0,0-.13.1.1,0,0,1-.022-.064.11.11,0,0,1,.064-.1.114.114,0,0,1-.043-.085.152.152,0,0,1,.008-.037.106.106,0,0,1,.006-.15l.016-.012a1.252,1.252,0,0,0-.05-.161.11.11,0,0,1,.05-.092v-.017a.111.111,0,0,1,.022-.065.316.316,0,0,0-.022-.187.109.109,0,0,1,.054-.092.126.126,0,0,1-.012-.05.11.11,0,0,1,.085-.1A.108.108,0,0,1,60.593,10a.107.107,0,0,1,.084-.064V9.911a.109.109,0,0,1,.023-.067.12.12,0,0,1-.008-.042.109.109,0,0,1,.08-.105.115.115,0,0,1,.035-.052L60.8,9.618a.112.112,0,0,1,.112-.109h.007a.751.751,0,0,0,.181-.2V9.292a.112.112,0,0,1,.112-.109.119.119,0,0,1,.064.018.111.111,0,0,1,.09-.047.111.111,0,0,1,.115-.107.116.116,0,0,1,.062.022.111.111,0,0,1,.15.017.141.141,0,0,1,.1-.037.15.15,0,0,1,.047.008,1.37,1.37,0,0,1,.3-.015.145.145,0,0,1,.167.015h.022a3.441,3.441,0,0,0,.366-.04.164.164,0,0,1,.037.042.112.112,0,0,1,.117.01.114.114,0,0,1,.067-.022.108.108,0,0,1,.11.106v0a.112.112,0,0,1,.092.047.107.107,0,0,1,.062-.02.112.112,0,0,1,.112.109V9.3a.106.106,0,0,1,.069.094.111.111,0,0,1,.112.109h.007a.11.11,0,0,1,.112.108h0v.027a.119.119,0,0,1,.033.052.111.111,0,0,1,.082.1.1.1,0,0,1-.01.043.1.1,0,0,1,.023.065v.022a.109.109,0,0,1,.092.122.113.113,0,0,1-.064.084.112.112,0,0,1,.085.105.1.1,0,0,1-.013.05.1.1,0,0,1,.048.133.092.092,0,0,1-.013.021.107.107,0,0,1,0,.125.114.114,0,0,1,.02.082.114.114,0,0,1,.05.092.1.1,0,0,1-.023.065v.023a.107.107,0,0,1-.028.072.106.106,0,0,1,.034.146.061.061,0,0,1-.012.016.094.094,0,0,1,.007.037.106.106,0,0,1-.042.085.11.11,0,0,1,.064.1.105.105,0,0,1-.022.064v.005a.1.1,0,0,1-.022.064.1.1,0,0,1,.022.065.105.105,0,0,1-.05.09v.018a.107.107,0,0,1-.03.074.109.109,0,0,1,.03.075.108.108,0,0,1-.074.1.131.131,0,0,1,.012.048.107.107,0,0,1-.042.084.118.118,0,0,1,.013.052.106.106,0,0,1-.037.08.107.107,0,0,1-.032.147.114.114,0,0,1-.04.015.106.106,0,0,1,.025.07.111.111,0,0,1-.11.109.115.115,0,0,1-.058-.009.117.117,0,0,1-.072.035v.02a.11.11,0,0,1-.111.109h0a.1.1,0,0,1-.048-.012.132.132,0,0,1-.043.012.112.112,0,0,1-.154.038l-.022-.017a.472.472,0,0,1-.276,0h-.033a.772.772,0,0,1-.059.054l-.02.017v.209a1.564,1.564,0,0,0,.028.237.343.343,0,0,0,.187.234l.045.022.55.216a3.957,3.957,0,0,1,.43.182.815.815,0,0,1,.421.594c.012.042.023.085.035.134a15.921,15.921,0,0,1,.258,1.682H59.768a15.883,15.883,0,0,1,.258-1.68" fill="#fafafa"/>
        </g>
      </g>
      <g id="Group_324" data-name="Group 324">
        <g id="Group_323" data-name="Group 323" clip-path="url(#clip-path-2)">
          <path id="Path_196" data-name="Path 196" d="M62.25,16.418A4.249,4.249,0,1,1,66.5,12.169a4.249,4.249,0,0,1-4.252,4.249m0-8.065a3.816,3.816,0,1,0,3.816,3.816,3.815,3.815,0,0,0-3.816-3.816" fill="#fafafa"/>
        </g>
      </g>
      <g id="Group_326" data-name="Group 326">
        <g id="Group_325" data-name="Group 325" clip-path="url(#clip-path-9)">
          <path id="Path_197" data-name="Path 197" d="M75.324,59.969c.012-.048.023-.092.035-.134.144-.49.354-.542.423-.594a3.909,3.909,0,0,1,.426-.184c.149-.057.341-.13.56-.217l.03-.013a.363.363,0,0,0,.211-.269,1.178,1.178,0,0,0,.023-.214v-.19c-.012-.01-.025-.018-.035-.028l-.064-.059h-.02a.117.117,0,0,1-.144.027.113.113,0,0,1-.135-.018.115.115,0,0,1-.161,0l-.018-.022a.142.142,0,0,1-.04-.012.112.112,0,0,1-.162-.1v-.02a.123.123,0,0,1-.07-.035.11.11,0,0,1-.151-.039.106.106,0,0,1-.015-.055.1.1,0,0,1,.025-.07.109.109,0,0,1-.074-.162.106.106,0,0,1-.037-.08.118.118,0,0,1,.013-.052.11.11,0,0,1-.042-.084.13.13,0,0,1,.012-.048.109.109,0,0,1-.072-.1.1.1,0,0,1,.03-.075.1.1,0,0,1-.03-.074V57.03a.1.1,0,0,1-.052-.09.108.108,0,0,0,0-.13.105.105,0,0,1-.022-.064.113.113,0,0,1,.064-.1.118.118,0,0,1-.043-.085.221.221,0,0,1,.008-.037.107.107,0,0,1-.028-.072.11.11,0,0,1,.05-.09.1.1,0,0,1-.025-.1.1.1,0,0,1-.025-.065.114.114,0,0,1,.05-.092v-.017a.1.1,0,0,1,.022-.065.107.107,0,0,1,0-.125.1.1,0,0,1-.018-.062.111.111,0,0,1,.052-.092.146.146,0,0,1-.012-.05.142.142,0,0,0,.03-.247.107.107,0,0,1,.085-.064l0-.023A.109.109,0,0,1,76,55.293a.126.126,0,0,1,0-.043.108.108,0,0,1,.079-.1.154.154,0,0,1,.035-.052v-.027a.111.111,0,0,1,.11-.109h.007a.111.111,0,0,1,.112-.107.114.114,0,0,1,.069-.1v-.008a.111.111,0,0,1,.112-.109.119.119,0,0,1,.064.018.114.114,0,0,1,.09-.047.112.112,0,0,1,.11-.107.12.12,0,0,1,.069.022.109.109,0,0,1,.149.017.153.153,0,0,1,.1-.037.15.15,0,0,1,.047.008.139.139,0,0,1,.162-.017.135.135,0,0,1,.14,0,.142.142,0,0,1,.167.015h.023a.138.138,0,0,1,.167-.013.141.141,0,0,1,.188-.017.125.125,0,0,1,.037.042.112.112,0,0,1,.117.01.114.114,0,0,1,.067-.022.108.108,0,0,1,.11.106v0a.116.116,0,0,1,.094.047.1.1,0,0,1,.06-.02.114.114,0,0,1,.114.109v.01a.821.821,0,0,0,.181.2h0a.11.11,0,0,1,.112.108h0V55.1a.177.177,0,0,1,.033.052.113.113,0,0,1,.082.1.128.128,0,0,1-.01.043.116.116,0,0,1,.023.065v.022a.109.109,0,0,1,.092.122.116.116,0,0,1-.065.084.111.111,0,0,1,.085.1.126.126,0,0,1-.012.05.106.106,0,0,1,.039.145l-.006.009a.107.107,0,0,1,0,.125.108.108,0,0,1,.018.082.107.107,0,0,1,.036.146l-.008.011v.023a.107.107,0,0,1-.028.072.1.1,0,0,1,.052.09.117.117,0,0,1-.028.072.092.092,0,0,1,0,.037.111.111,0,0,1-.04.085.107.107,0,0,1,.041.164v.005a.106.106,0,0,0,0,.129.1.1,0,0,1-.05.09v.018a.107.107,0,0,1-.03.074.109.109,0,0,1,.03.075.107.107,0,0,1-.075.1.13.13,0,0,1,.012.048.109.109,0,0,1-.04.084.152.152,0,0,1,.012.052.1.1,0,0,1-.035.08.136.136,0,0,1,.017.055.116.116,0,0,1-.09.107.106.106,0,0,1,.027.07.111.111,0,0,1-.11.109.113.113,0,0,1-.057-.015.117.117,0,0,1-.072.035v.02a.109.109,0,0,1-.109.109h0a.108.108,0,0,1-.05-.012.106.106,0,0,1-.043.012.111.111,0,0,1-.152.039h0l-.02-.017a.118.118,0,0,1-.137.018.114.114,0,0,1-.14-.023H78.05a.61.61,0,0,1-.059.054l-.018.017v.215a1.258,1.258,0,0,0,.028.237.346.346,0,0,0,.186.234l.047.022c.214.085.4.159.55.216a3.957,3.957,0,0,1,.43.182.816.816,0,0,1,.42.594c.012.042.023.085.035.134a16.185,16.185,0,0,1,.259,1.682h-4.86a15.379,15.379,0,0,1,.256-1.68" fill="#fafafa"/>
        </g>
      </g>
      <g id="Group_328" data-name="Group 328">
        <g id="Group_327" data-name="Group 327" clip-path="url(#clip-path-2)">
          <path id="Path_199" data-name="Path 199" d="M77.547,61.874A4.249,4.249,0,1,1,81.8,57.625a4.249,4.249,0,0,1-4.249,4.249m0-8.064a3.816,3.816,0,1,0,3.816,3.816,3.815,3.815,0,0,0-3.816-3.816" fill="#fafafa"/>
          <path id="Path_200" data-name="Path 200" d="M7.283,6.784c0-1.434-.86-2.612-1.973-2.612H1.972C.86,4.172,0,5.28,0,6.713v48.7c0,1.434.86,2.541,1.972,2.541H5.31c1.113,0,1.973-1.108,1.973-2.541ZM23.049,56a1.878,1.878,0,0,0,1.737,2.041h2.939A1.879,1.879,0,0,0,29.462,56V24.113a10.452,10.452,0,0,0-2.717-7.59,7.6,7.6,0,0,0-4.9-1.937,5.675,5.675,0,0,0-2.049.365,7.025,7.025,0,0,1-2.182.681,2.21,2.21,0,0,1-1.024-.314l-.267-.157a2.9,2.9,0,0,0-1.6-.576,2.271,2.271,0,0,0-1.782.943,3.616,3.616,0,0,0-.579,2.408V56A1.878,1.878,0,0,0,14.1,58.037h2.939A1.879,1.879,0,0,0,18.775,56V24.585a3.176,3.176,0,0,1,.579-2.1,1.87,1.87,0,0,1,3.118,0,3.176,3.176,0,0,1,.579,2.1Z" fill="#fafafa"/>
          <path id="Path_201" data-name="Path 201" d="M33.613,3.851A2.337,2.337,0,0,0,31.5,6.395l0,.025v4.149a2.339,2.339,0,0,0,2.085,2.567l.025,0h2.652a1.381,1.381,0,0,1,1.3,1.457c0,.019,0,.039,0,.058V55.63A2.338,2.338,0,0,0,39.649,58.2l.025,0h3.572a2.4,2.4,0,0,0,2.112-2.634V14.654a1.381,1.381,0,0,1,1.24-1.51l.059-.005h2.652A2.338,2.338,0,0,0,51.421,10.6l0-.024V6.421a2.337,2.337,0,0,0-2.086-2.566l-.024,0Z" fill="#fafafa"/>
          <path id="Path_202" data-name="Path 202" d="M107.291,48.508V16.727a1.929,1.929,0,0,0-1.833-2.063l-.022,0H102.3a1.933,1.933,0,0,0-1.857,2.045l0,.02V48.455a3.117,3.117,0,0,1-.714,2.28,2.275,2.275,0,0,1-1.569.689,2.114,2.114,0,0,1-1.665-.847,3.091,3.091,0,0,1-.618-2.122V16.727a1.93,1.93,0,0,0-1.833-2.064h-3.16a1.933,1.933,0,0,0-1.857,2.045l0,.02V48.879c0,3.6,1.094,5.88,3.044,7.521a8.413,8.413,0,0,0,5.707,2.225,7.887,7.887,0,0,0,4.518-1.166l.618-.424a1.526,1.526,0,0,1,.9-.37,1.647,1.647,0,0,1,.951.37l.571.424a8.05,8.05,0,0,0,4.569,1.166,9.205,9.205,0,0,0,5.8-2.225c1.9-1.641,3-3.922,3-7.521V16.727a1.929,1.929,0,0,0-1.833-2.063l-.022,0h-3.14a1.933,1.933,0,0,0-1.857,2.045l0,.02V48.455a3.116,3.116,0,0,1-.713,2.28,2.275,2.275,0,0,1-1.569.689,2.114,2.114,0,0,1-1.665-.847,3.037,3.037,0,0,1-.619-2.069" fill="#fafafa"/>
          <path id="Path_203" data-name="Path 203" d="M135.859,56a1.919,1.919,0,0,0,1.835,2.039l.026,0h3.149a1.924,1.924,0,0,0,1.862-2.018l0-.023V24.113a10.041,10.041,0,0,0-2.91-7.59,8.466,8.466,0,0,0-5.248-1.937,6.451,6.451,0,0,0-2.195.365,7.93,7.93,0,0,1-2.338.681,2.491,2.491,0,0,1-1.1-.314l-.286-.157a3.251,3.251,0,0,0-1.715-.575,2.485,2.485,0,0,0-1.909.943,3.436,3.436,0,0,0-.62,2.407V56a1.92,1.92,0,0,0,1.839,2.036l.022,0h3.149a1.926,1.926,0,0,0,1.863-2.018l0-.02V24.585a3.032,3.032,0,0,1,.62-2.1,2.085,2.085,0,0,1,3.34,0,3.032,3.032,0,0,1,.62,2.1Z" fill="#fafafa"/>
        </g>
      </g>
    </g>
  </g>
</svg>
